<svg xmlns="http://www.w3.org/2000/svg" viewBox="0 0 23 15">
    <title>Wolt+</title>
    <rect width="22.207" height="15" rx="7.5" fill="none"></rect>
    <path
        d="M18.203 7.388a.281.281 0 0 0-.282-.33H15.81l.377-2.177a.24.24 0 0 0-.235-.281h-.413a.238.238 0 0 0-.235.198l-.398 2.25h-2.21a.281.281 0 0 0-.281.233l-.06.336a.282.282 0 0 0 .282.329h2.116l-.382 2.172a.236.236 0 0 0 .133.26.238.238 0 0 0 .101.022h.414a.237.237 0 0 0 .235-.197l.397-2.25h2.223a.281.281 0 0 0 .282-.232l.047-.333ZM10.64 4.32c-.201 0-.38.01-.469.019-.177.018-.237.184-.224.348.186 2.37-.341 5.128-.94 5.128-.447 0-.57-1.29-.57-2.436 0-.678.039-1.33.055-1.908.006-.214-.073-.254-.228-.272a1.745 1.745 0 0 0-.642.022c-.179.04-.221.185-.41.63a70.121 70.121 0 0 1-1.848 3.991c-.24-1.783.068-3.51.33-4.773.036-.174-.048-.276-.191-.274-.272.005-.688.013-.876.135-.176.114-.243.236-.293.49-.29 1.444-.48 3.257-.188 4.658.063.303.134.375.263.453.13.08.684.15.9.15.244 0 .468-.065.654-.38.393-.669.71-1.336 1.305-2.623.06 1.676.3 2.991 1.49 2.991 1.575 0 2.593-3.899 2.593-5.775-.002-.493-.25-.575-.71-.575Z"></path>
</svg>